# xmcd
#
# Track frame offsets: 
#        150
#        42397
#        57427
#        70081
#        91500
#        117939
#        143782
#        170574
#        206271
#        235179
#        251596
#        276379
#        296697
#
# Disc length: 4176 seconds
#
# Revision: 1
# Processed by: cddbd v1.5.2PL0 Copyright (c) Steve Scherf et al.
# Submitted via: ExactAudioCopy v0.99pb4
#
DISCID=be104e0d
DTITLE=Miles Davis - Cool and Collected
DYEAR=2006
DGENRE=Jazz
TTITLE0=So What
TTITLE1=Summertime [from Porgy and Bess]
TTITLE2=Généerique [from Ascenseur Pour l'Échafaud]
TTITLE3=Stella By Starlight
TTITLE4=Fran-Dance [Alternate Take]
TTITLE5=Milestones
TTITLE6='Round Midnight
TTITLE7=Bye Bye Blackbird
TTITLE8=Seven Steps To Heaven
TTITLE9=Time After Time
TTITLE10=E.S.P.
TTITLE11=Human Nature
TTITLE12=It's About That Time [Remix]
EXTD=YEAR: 2006
EXTT0=
EXTT1=
EXTT2=
EXTT3=
EXTT4=
EXTT5=
EXTT6=
EXTT7=
EXTT8=
EXTT9=
EXTT10=
EXTT11=
EXTT12=
PLAYORDER=
